<svg preserveAspectRatio="none" overflow="visible" style="display: block;" width="42" height="42" viewBox="0 0 42 42" fill="none" xmlns="http://www.w3.org/2000/svg">
<g id="streamline-logos:apple-ios-logo-2-block">
<path id="Vector" fill-rule="evenodd" clip-rule="evenodd" d="M8.75 1.75C6.89348 1.75 5.11301 2.4875 3.80025 3.80025C2.4875 5.11301 1.75 6.89348 1.75 8.75V33.25C1.75 35.1065 2.4875 36.887 3.80025 38.1997C5.11301 39.5125 6.89348 40.25 8.75 40.25H33.25C35.1065 40.25 36.887 39.5125 38.1997 38.1997C39.5125 36.887 40.25 35.1065 40.25 33.25V8.75C40.25 6.89348 39.5125 5.11301 38.1997 3.80025C36.887 2.4875 35.1065 1.75 33.25 1.75H8.75ZM9.66875 14.1085C9.41304 14.1008 9.15839 14.1444 8.91988 14.2369C8.68137 14.3295 8.46386 14.4689 8.28025 14.6471C8.09664 14.8252 7.95066 15.0384 7.85098 15.274C7.75129 15.5096 7.69993 15.7628 7.69993 16.0186C7.69993 16.2744 7.75129 16.5277 7.85098 16.7633C7.95066 16.9989 8.09664 17.2121 8.28025 17.3902C8.46386 17.5683 8.68137 17.7078 8.91988 17.8003C9.15839 17.8928 9.41304 17.9365 9.66875 17.9287C10.1653 17.9137 10.6366 17.7059 10.9825 17.3493C11.3284 16.9927 11.5219 16.5154 11.5219 16.0186C11.5219 15.5218 11.3284 15.0445 10.9825 14.6879C10.6366 14.3314 10.1653 14.1235 9.66875 14.1085ZM18.1283 17.9287C16.4658 17.9287 14.9117 19.4513 14.9117 21.5985C14.9117 23.7458 16.4675 25.2665 18.1283 25.2665C19.789 25.2665 21.3447 23.744 21.3447 21.5985C21.3447 19.4513 19.7908 17.9287 18.1283 17.9287ZM12.2867 21.5985C12.2867 18.242 14.7893 15.3037 18.1283 15.3037C21.4708 15.3037 23.9697 18.2437 23.9697 21.5985C23.9697 24.9533 21.4708 27.8915 18.1283 27.8915C14.7875 27.8915 12.2867 24.9533 12.2867 21.5985ZM24.3705 19.334C24.3705 17.703 25.8633 15.3037 29.3055 15.3037C30.6233 15.3037 31.8167 15.9443 32.6375 16.6268C33.0592 16.9785 33.432 17.381 33.7103 17.7992C33.964 18.179 34.2422 18.725 34.2422 19.334H31.6172C31.6196 19.39 31.6225 19.4232 31.626 19.4337C31.619 19.4215 31.5962 19.362 31.5262 19.2553C31.3664 19.0253 31.175 18.8191 30.9575 18.6427C30.4185 18.1947 29.8008 17.9287 29.3055 17.9287C27.314 17.9287 26.9955 19.1538 26.9955 19.334V19.3463L27.0025 19.3567L27.0077 19.362C27.1201 19.4768 27.2539 19.5683 27.4015 19.6315C27.9265 19.894 28.6737 20.0865 29.624 20.3245L29.7045 20.3438C30.5498 20.5555 31.5735 20.811 32.3837 21.217C33.2325 21.6405 34.2422 22.4385 34.2422 23.863C34.2422 25.494 32.7477 27.8933 29.3072 27.8933C25.8632 27.8933 24.3705 25.494 24.3705 23.863H26.9955C26.9955 24.0432 27.314 25.2683 29.3055 25.2683C31.297 25.2683 31.6155 24.0432 31.6155 23.863L31.6172 23.8542V23.8507L31.6102 23.8403L31.605 23.8333C31.492 23.7189 31.3576 23.6279 31.2095 23.5655C30.6862 23.303 29.939 23.1105 28.987 22.8708L28.9082 22.8533C28.063 22.6398 27.0392 22.3843 26.229 21.9783C25.3802 21.5548 24.3705 20.7568 24.3705 19.334ZM8.358 18.4275V27.4855H10.983V18.4293L8.358 18.4275Z" fill="#535353"/>
</g>
</svg>
